<svg id="Camada_1" data-name="Camada 1" xmlns="http://www.w3.org/2000/svg" viewBox="0 0 2048 512"><defs><style>.cls-1{fill:#078950;}.cls-2{fill:#11abc1;}.cls-3{fill:none;stroke:#078950;stroke-miterlimit:10;stroke-width:46px;}</style></defs><title>Prancheta 1</title><path class="cls-1" d="M1565,188.72l50.85,43.45a.22.22,0,0,1,0,.08l54.65,135.38a19.79,19.79,0,0,0,12.39,11.46l264.17,83.43a19.79,19.79,0,0,0,24.83-24.84l-83.42-264.17a19.79,19.79,0,0,0-11.48-12.4l-135-54.3a.18.18,0,0,1-.07,0L1698.16,55.5a19.79,19.79,0,0,0-29-1.14L1563.81,159.67a19.8,19.8,0,0,0,1.14,29.05Zm344.81,183.67-132.3-132.31c-7.38-7.38-19.42-8.64-27.41-1.93a19.8,19.8,0,0,0-1.31,29.2L1881.19,399.8a.2.2,0,0,1-.21.33l-177.17-55.95a.22.22,0,0,1-.13-.12l-47.77-118.35a.22.22,0,0,1,0-.22l78.81-78.81a.22.22,0,0,1,.22,0l118.47,47.67a.2.2,0,0,1,.12.13l56.19,178ZM1682.12,97.66l20.93,24.49a.2.2,0,0,1,0,.27l-71.17,71.17a.2.2,0,0,1-.27,0l-24.49-20.93a.19.19,0,0,1,0-.29l74.72-74.73A.2.2,0,0,1,1682.12,97.66Z"/><path class="cls-2" d="M82.82,398.31q-7.26-7.23-7.28-19.67l-.35-242.37q0-12,6.8-18.66T100.84,111l101.92-.15q46.82-.07,72.95,23.3t26.2,65.63q.06,42.26-26,65.91T203,289.38l-74.16.1.13,89.08q0,12.44-7.23,19.69t-19.67,7.28Q90.07,405.55,82.82,398.31ZM196.33,248.37q55.1-.08,55-48.14t-55.17-48l-67.53.1.14,96.12Z"/><path class="cls-2" d="M599.23,383.26A19.4,19.4,0,0,1,591.59,399a27.76,27.76,0,0,1-18,6.24,27,27,0,0,1-22.81-12.4l-55.22-83.61q-8.31-13.25-17.64-18.62t-24.24-5.35l-40.6.06.13,92.81q0,12.42-7,19.69t-19.05,7.28q-12,0-19.28-7.23t-7.28-19.67l-.35-242.37q0-12,6.81-18.65t18.84-6.66l103.58-.15q49.71-.08,75.64,22.06t26,64q0,34-19.18,55.75t-54.45,28.05a52.2,52.2,0,0,1,21.15,10.33q9.12,7.43,17.85,20.68l37.78,57.54Q599.22,376.21,599.23,383.26ZM526.51,232.77q14.07-11.42,14-35,0-24-14.14-35t-44.35-10.92l-69.6.1.13,92.4,69.61-.11Q512.43,244.19,526.51,232.77Z"/><path class="cls-2" d="M714.21,387.65q-31.31-18.18-48.34-52.13T648.77,256q-.07-45.56,16.66-79.36t48.2-52.07q31.44-18.27,74.13-18.33t74,18.12q31.31,18.18,48.14,51.92t16.89,79.32q.06,45.59-16.87,79.57t-48.19,52.28q-31.26,18.27-73.51,18.33Q745.51,405.83,714.21,387.65Zm136.65-52.4q22.54-27.79,22.46-79.58t-22.69-79.31Q828,148.85,787.82,148.9q-40.61.06-63.14,27.65t-22.46,79.37q.07,51.79,22.69,79.51t63.22,27.67Q828.32,363,850.86,335.25Z"/><path class="cls-2" d="M1299.23,394.67q-6.84-6.62-6.86-18.64L1292,134.49q0-12,6.81-18.65t18.85-6.66l149.57-.22q12,0,18.65,5.36t6.65,15.32q0,10.37-6.61,16t-18.63,5.62l-123.06.18.12,80.38,114.77-.17q12,0,18.65,5.36t6.65,15.73q0,9.94-6.6,15.34t-18.64,5.42l-114.77.16.13,85.35,123-.18q12,0,18.65,5.57t6.66,15.94q0,9.94-6.61,15.34t-18.64,5.41l-149.57.22Q1306.07,401.29,1299.23,394.67Z"/><path class="cls-3" d="M986.48,272l85.86,113.18a15.53,15.53,0,0,0,26.4-2.7L1217.5,133.06"/><circle class="cls-1" cx="1217.47" cy="133.25" r="23.02"/><circle class="cls-1" cx="986.48" cy="271.97" r="23.02"/></svg>