<svg id="Camada_1" data-name="Camada 1" xmlns="http://www.w3.org/2000/svg" viewBox="0 0 512 512"><defs><style>.cls-1{fill:#078950;}</style></defs><title>Prancheta 2</title><path class="cls-1" d="M11.94,174.09,73.85,227a.22.22,0,0,1,.07.09L140.44,391.9a24.13,24.13,0,0,0,15.09,14L477.14,507.42a24.1,24.1,0,0,0,30.24-30.23L405.82,155.58a24.07,24.07,0,0,0-14-15.1L227.55,74.37a.23.23,0,0,1-.1-.07L174.13,11.9a24.09,24.09,0,0,0-35.37-1.38L10.56,138.73a24.1,24.1,0,0,0,1.38,35.36ZM431.74,397.7,270.66,236.62c-9-9-23.63-10.52-33.36-2.35a24.11,24.11,0,0,0-1.6,35.55L397,431.07a.24.24,0,0,1-.25.4L181,363.35a.21.21,0,0,1-.15-.14L122.69,219.12a.23.23,0,0,1,0-.26l96-96a.23.23,0,0,1,.26,0l144.23,58a.21.21,0,0,1,.14.15L431.74,397.7ZM154.59,63.23l25.48,29.82a.24.24,0,0,1,0,.33L93.42,180a.25.25,0,0,1-.33,0L63.27,154.55a.25.25,0,0,1,0-.36l91-91A.23.23,0,0,1,154.59,63.23Z"/></svg>